<svg xmlns="http://www.w3.org/2000/svg" width="49.102" height="47.677" viewBox="0 0 49.102 47.677">
  <g id="Cart" transform="translate(0.002 0.002)">
    <path id="Cart-2" data-name="Cart" d="M120.529,86.169H85.273L83.242,81.4a1.668,1.668,0,0,0-1.153-.971l-6.541-1.539a1.668,1.668,0,0,0-.764,3.247L80.5,83.479l14.639,34.412a5.514,5.514,0,1,0,9.878.555h6.005a5.515,5.515,0,1,0,5.077-3.361l-18.519.026L95.3,109.741h25.229a1.668,1.668,0,0,0,1.668-1.668V87.837A1.668,1.668,0,0,0,120.529,86.169Zm-4.423,32.252a2.179,2.179,0,1,1-2.179,2.179A2.179,2.179,0,0,1,116.106,118.421Zm-16.154,0a2.179,2.179,0,1,1-2.179,2.179A2.179,2.179,0,0,1,99.952,118.421Zm18.91-22.134H107.807a1.668,1.668,0,0,0,0,3.336h11.054v6.782H93.881l-7.19-16.9h32.17Z" transform="translate(-73.297 -78.639)" fill="#c21c30" stroke="#727c8e" stroke-width="0.4"/>
  </g>
</svg>
