<svg xmlns="http://www.w3.org/2000/svg" width="40" height="39" viewBox="0 0 40 39">
  <g id="Group_550" data-name="Group 550" transform="translate(-282 -2110)">
    <ellipse id="Ellipse_11" data-name="Ellipse 11" cx="20" cy="19.5" rx="20" ry="19.5" transform="translate(282 2110)" fill="#fff"/>
    <g id="Component_213" data-name="Component 213" transform="translate(289.921 2117)">
      <path id="Path_3" data-name="Path 3" d="M12.532,2.228a38.425,38.425,0,0,1,5.013.139,6.458,6.458,0,0,1,2.367.418,4.89,4.89,0,0,1,2.367,2.367A6.458,6.458,0,0,1,22.7,7.519c0,1.253.139,1.671.139,5.013a38.425,38.425,0,0,1-.139,5.013,6.458,6.458,0,0,1-.418,2.367,4.89,4.89,0,0,1-2.367,2.367,6.458,6.458,0,0,1-2.367.418c-1.253,0-1.671.139-5.013.139A38.425,38.425,0,0,1,7.519,22.7a6.458,6.458,0,0,1-2.367-.418,4.89,4.89,0,0,1-2.367-2.367,6.458,6.458,0,0,1-.418-2.367c0-1.253-.139-1.671-.139-5.013a38.425,38.425,0,0,1,.139-5.013,6.458,6.458,0,0,1,.418-2.367A5,5,0,0,1,3.76,3.76a2.354,2.354,0,0,1,1.392-.975,6.458,6.458,0,0,1,2.367-.418,38.425,38.425,0,0,1,5.013-.139m0-2.228A41.142,41.142,0,0,0,7.38.139,8.6,8.6,0,0,0,4.316.7,5.451,5.451,0,0,0,2.089,2.089,5.451,5.451,0,0,0,.7,4.316,6.344,6.344,0,0,0,.139,7.38,41.142,41.142,0,0,0,0,12.532a41.142,41.142,0,0,0,.139,5.152A8.6,8.6,0,0,0,.7,20.747a5.451,5.451,0,0,0,1.392,2.228,5.451,5.451,0,0,0,2.228,1.392,8.6,8.6,0,0,0,3.063.557,41.142,41.142,0,0,0,5.152.139,41.142,41.142,0,0,0,5.152-.139,8.6,8.6,0,0,0,3.063-.557,5.842,5.842,0,0,0,3.62-3.62,8.6,8.6,0,0,0,.557-3.063c0-1.392.139-1.81.139-5.152a41.142,41.142,0,0,0-.139-5.152,8.6,8.6,0,0,0-.557-3.063,5.451,5.451,0,0,0-1.392-2.228A5.451,5.451,0,0,0,20.747.7,8.6,8.6,0,0,0,17.684.139,41.142,41.142,0,0,0,12.532,0m0,6.127a6.3,6.3,0,0,0-6.405,6.405,6.405,6.405,0,1,0,6.405-6.405m0,10.582a4.1,4.1,0,0,1-4.177-4.177,4.1,4.1,0,0,1,4.177-4.177,4.1,4.1,0,0,1,4.177,4.177,4.1,4.1,0,0,1-4.177,4.177M19.215,4.316a1.532,1.532,0,1,0,1.532,1.532,1.545,1.545,0,0,0-1.532-1.532" fill="#c21c30" fill-rule="evenodd"/>
    </g>
  </g>
</svg>
