<svg xmlns="http://www.w3.org/2000/svg" width="48" height="22" viewBox="0 0 48 22">
  <g id="Group_554" data-name="Group 554" transform="translate(-630 -1118)">
    <rect id="Rectangle_724" data-name="Rectangle 724" width="48" height="22" rx="6" transform="translate(630 1118)" fill="#2dabe6"/>
    <g id="Group_324" data-name="Group 324" transform="translate(638.265 1125.235)">
      <path id="XMLID_15_" d="M130.256,25.785c-.1.648-.589.648-1.067.648h-.272l.191-1.207a.15.15,0,0,1,.147-.125h.125c.324,0,.633,0,.787.184A.589.589,0,0,1,130.256,25.785ZM130.05,24.1h-1.8a.253.253,0,0,0-.25.213l-.728,4.606a.149.149,0,0,0,.147.169h.861a.253.253,0,0,0,.25-.213l.2-1.244a.251.251,0,0,1,.243-.213h.567a1.845,1.845,0,0,0,2.046-1.707,1.412,1.412,0,0,0-.228-1.163A1.724,1.724,0,0,0,130.05,24.1Z" transform="translate(-117.906 -22.327)" fill="#fff"/>
      <path id="XMLID_12_" d="M185.626,47.351a.957.957,0,0,1-.971.824.732.732,0,0,1-.581-.235.723.723,0,0,1-.132-.6.968.968,0,0,1,.964-.831.727.727,0,0,1,.574.235A.757.757,0,0,1,185.626,47.351Zm1.2-1.67h-.861a.144.144,0,0,0-.147.125l-.037.243-.059-.088a1.217,1.217,0,0,0-1.015-.361,1.977,1.977,0,0,0-1.921,1.729,1.638,1.638,0,0,0,.324,1.324,1.349,1.349,0,0,0,1.082.434,1.652,1.652,0,0,0,1.192-.493l-.037.235a.155.155,0,0,0,.147.177h.773a.253.253,0,0,0,.25-.213l.464-2.943A.159.159,0,0,0,186.825,45.681Z" transform="translate(-169.309 -42.245)" fill="#fff"/>
      <path id="XMLID_11_" d="M249.775,46.7h-.861a.255.255,0,0,0-.206.11l-1.192,1.751-.508-1.685a.254.254,0,0,0-.243-.177h-.846a.148.148,0,0,0-.14.2l.949,2.8-.9,1.266a.148.148,0,0,0,.125.235h.861a.237.237,0,0,0,.206-.11l2.877-4.15A.15.15,0,0,0,249.775,46.7Z" transform="translate(-227.682 -43.263)" fill="#fff"/>
      <path id="XMLID_8_" d="M304.449,25.785c-.1.648-.589.648-1.067.648h-.272l.191-1.207a.15.15,0,0,1,.147-.125h.125c.324,0,.633,0,.787.184A.589.589,0,0,1,304.449,25.785Zm-.206-1.685h-1.8a.24.24,0,0,0-.243.213l-.728,4.606a.149.149,0,0,0,.147.169h.92a.163.163,0,0,0,.169-.147l.206-1.3a.251.251,0,0,1,.243-.213h.567a1.845,1.845,0,0,0,2.046-1.707,1.412,1.412,0,0,0-.228-1.163A1.648,1.648,0,0,0,304.243,24.1Z" transform="translate(-279.288 -22.327)" fill="#fff"/>
      <path id="XMLID_5_" d="M359.726,47.351a.957.957,0,0,1-.971.824.732.732,0,0,1-.581-.235.722.722,0,0,1-.132-.6.967.967,0,0,1,.964-.824.684.684,0,0,1,.721.839Zm1.2-1.67h-.861a.144.144,0,0,0-.147.125l-.037.243-.059-.088a1.217,1.217,0,0,0-1.015-.361,1.977,1.977,0,0,0-1.921,1.729,1.637,1.637,0,0,0,.324,1.324,1.349,1.349,0,0,0,1.082.434,1.652,1.652,0,0,0,1.192-.493l-.037.235a.155.155,0,0,0,.147.177h.773a.24.24,0,0,0,.243-.213l.464-2.943A.145.145,0,0,0,360.925,45.681Z" transform="translate(-330.599 -42.245)" fill="#fff"/>
      <path id="XMLID_4_" d="M416.612,24.132l-.736,4.695a.149.149,0,0,0,.147.169h.743a.253.253,0,0,0,.25-.213l.729-4.606A.155.155,0,0,0,417.6,24h-.831A.159.159,0,0,0,416.612,24.132Z" transform="translate(-385.27 -22.234)" fill="#fff"/>
      <path id="XMLID_3_" d="M26.6,27.4c-.007.044-.015.1-.022.147a2.59,2.59,0,0,1-2.862,2.237H23a.349.349,0,0,0-.346.294l-.368,2.347-.1.662a.186.186,0,0,0,.184.213h1.273a.3.3,0,0,0,.3-.258l.015-.066.243-1.531.015-.081a.308.308,0,0,1,.3-.258H24.7a2.266,2.266,0,0,0,2.5-1.965,1.674,1.674,0,0,0-.258-1.479A1.165,1.165,0,0,0,26.6,27.4Z" transform="translate(-20.542 -25.384)" fill="#fff"/>
      <path id="XMLID_2_" d="M32.213,24.11a1.176,1.176,0,0,0-.155-.037,1.248,1.248,0,0,0-.162-.029,4.3,4.3,0,0,0-.64-.044H29.328a.269.269,0,0,0-.132.029.3.3,0,0,0-.169.228l-.412,2.6-.015.074a.354.354,0,0,1,.346-.294h.721A2.58,2.58,0,0,0,32.522,24.4c.007-.052.015-.1.022-.147a1.429,1.429,0,0,0-.265-.11A.261.261,0,0,0,32.213,24.11Z" transform="translate(-26.493 -22.234)" fill="#fff"/>
      <path id="XMLID_1_" d="M2.486,2.024A.3.3,0,0,1,2.655,1.8a.289.289,0,0,1,.132-.029H4.716a4.374,4.374,0,0,1,.64.044c.059.007.11.022.162.029s.1.022.155.037l.074.022a1.429,1.429,0,0,1,.265.11A1.572,1.572,0,0,0,5.68.6,2.441,2.441,0,0,0,3.8,0H1.338A.343.343,0,0,0,.992.294L-.038,6.806a.211.211,0,0,0,.206.243H1.691l.383-2.421Z" transform="translate(0.041 0)" fill="#fff"/>
    </g>
  </g>
</svg>
