<svg xmlns="http://www.w3.org/2000/svg" width="40" height="39" viewBox="0 0 40 39">
  <g id="Group_551" data-name="Group 551" transform="translate(-359 -2110)">
    <ellipse id="Ellipse_12" data-name="Ellipse 12" cx="20" cy="19.5" rx="20" ry="19.5" transform="translate(359 2110)" fill="#fff"/>
    <path id="Path_2" data-name="Path 2" d="M45.935,22.324A14.487,14.487,0,0,0,60.551,7.707v-.7a11.316,11.316,0,0,0,2.506-2.645,11.556,11.556,0,0,1-2.923.835,5.416,5.416,0,0,0,2.227-2.784,12.768,12.768,0,0,1-3.2,1.253A4.971,4.971,0,0,0,55.4,2,5.23,5.23,0,0,0,50.25,7.151a2.714,2.714,0,0,0,.139,1.114A14.392,14.392,0,0,1,39.81,2.835a5.331,5.331,0,0,0-.7,2.645A5.531,5.531,0,0,0,41.341,9.8a4.693,4.693,0,0,1-2.366-.7h0a5.087,5.087,0,0,0,4.176,5.011,4.291,4.291,0,0,1-1.392.139,2.369,2.369,0,0,1-.974-.139,5.274,5.274,0,0,0,4.872,3.619,10.51,10.51,0,0,1-6.4,2.227A3.854,3.854,0,0,1,38,19.818a13.139,13.139,0,0,0,7.935,2.506" transform="translate(329.319 2118.665)" fill="#c21c30" fill-rule="evenodd"/>
  </g>
</svg>
