<svg xmlns="http://www.w3.org/2000/svg" viewBox="0 0 100.07 76.6"><defs><style>.cls-1{fill:#d03240;}.cls-2{fill:#fdf49b;}</style></defs><g id="logo_new_1" data-name="logo new 1"><polygon class="cls-1" points="4.21 33.56 24.23 5.71 45.05 32.23 50.06 33.56 47.21 44.7 90.33 43.9 92.61 31.97 93.97 47.62 97.61 47.62 95.22 12.47 47.9 16.19 23.89 1.65 0 33.69 4.21 33.56"/><path class="cls-1" d="M35.64,59.63l1.44-.15a.44.44,0,0,1,.36.23.85.85,0,0,1,.16.5c0,.17-.06.76-.17,1.77a23.72,23.72,0,0,0-.17,2.39c0,.58.05.88.16.88.29,0,.7-.39,1.22-1.11a16.8,16.8,0,0,0,1.56-2.78c.51-1.13.82-1.7.94-1.7s.16.07.16.21a6.36,6.36,0,0,1-.75,2.32c-1.38,2.93-2.53,4.39-3.47,4.39a2.4,2.4,0,0,1-1.54-.42,6.15,6.15,0,0,1-.19-2.27,12.48,12.48,0,0,1,.45-3.58,2.3,2.3,0,0,1-2.12-1,2.06,2.06,0,0,1-.31-1.13,2.25,2.25,0,0,1,.26-1.09.81.81,0,0,1,.74-.47,1.13,1.13,0,0,1,.89.51,1.79,1.79,0,0,1,.41,1.13,2.44,2.44,0,0,1-.37,1.26A.59.59,0,0,0,35.64,59.63Z"/><path class="cls-1" d="M43.52,66.58a2.78,2.78,0,0,1-2.32-1.11A4,4,0,0,1,40.34,63a6.67,6.67,0,0,1,1.2-4.31,3.84,3.84,0,0,1,3.11-1.46,2.21,2.21,0,0,1,1.46.48A1.66,1.66,0,0,1,46.68,59a3.25,3.25,0,0,1-1.32,2.63,5.21,5.21,0,0,1-3.22,1.1,3.38,3.38,0,0,0,.69,1.77,1.73,1.73,0,0,0,1.37.74,2.7,2.7,0,0,0,1.41-.37,4,4,0,0,0,1.15-1,15.19,15.19,0,0,0,1.88-3.26,7.47,7.47,0,0,1,.33-.68c.07-.14.16-.21.26-.21s.14.07.14.21a8.8,8.8,0,0,1-1.59,3.91Q46.06,66.59,43.52,66.58Zm-1.38-4.49a4.14,4.14,0,0,0,2.26-1,2.62,2.62,0,0,0,.72-1.91c0-.78-.26-1.17-.76-1.17s-1.12.42-1.54,1.26A6.69,6.69,0,0,0,42.14,62.09Z"/><path class="cls-1" d="M55.63,66.58a2.44,2.44,0,0,1-1.54-.42,1.49,1.49,0,0,1-.18-.93c0-.49,0-1.16.05-2a10.17,10.17,0,0,1-1.34,2.52,2.11,2.11,0,0,1-1.71.82,2.3,2.3,0,0,1-1.83-1,4.93,4.93,0,0,1-.78-3.08,6.14,6.14,0,0,1,1.19-3.72,3.69,3.69,0,0,1,3.12-1.62,2.88,2.88,0,0,1,1.88,1.1,3.39,3.39,0,0,1,.74-.69,1.65,1.65,0,0,1,.91-.41c.26,0,.38.33.38,1a7.3,7.3,0,0,1-.14,1,4.3,4.3,0,0,1-.33,1.1,20.39,20.39,0,0,0-.23,4.25c0,.47,0,.71.15.71q.45,0,1.23-1.11a16.13,16.13,0,0,0,1.55-2.78c.52-1.13.83-1.7.94-1.7s.17.07.17.21a6.36,6.36,0,0,1-.75,2.32Q57,66.59,55.63,66.58Zm-3.18-8.36c-.49,0-1,.37-1.55,1.09a4.08,4.08,0,0,0-.83,2.54,5.69,5.69,0,0,0,.44,2.4c.28.63.66.94,1.13.94s1.42-1.43,2.53-4.3c0-.14,0-.38.07-.72s0-.6.06-.77a2.41,2.41,0,0,0-.82-.8A2,2,0,0,0,52.45,58.22Z"/><path class="cls-1" d="M60.78,65l0,.81c0,.48-.14.73-.42.73a4.4,4.4,0,0,1-1.2-.17c-.38-.12-.57-.27-.57-.47s0-.89.14-2.06.15-2.06.15-2.65V59.69c0-.84.08-1.34.26-1.52a9.7,9.7,0,0,1,.92-.75,2.11,2.11,0,0,1,1-.5c.2,0,.33,0,.38.1a.72.72,0,0,1,.08.4A6.58,6.58,0,0,1,61,60c-.08,1-.13,1.68-.13,2.06.93-1.72,1.57-2.86,1.94-3.4.64-1,1.22-1.51,1.74-1.51a1.37,1.37,0,0,1,.93.39,1.25,1.25,0,0,1,.43,1c0,.38,0,.74,0,1.08s0,.61,0,.8,0,.31,0,.36a11.49,11.49,0,0,1,.89-1.17c.52-.65.88-1.06,1.06-1.25a8.11,8.11,0,0,1,.59-.58,1.66,1.66,0,0,1,1.08-.6,1.35,1.35,0,0,1,.91.37,1.12,1.12,0,0,1,.43.91c0,.77-.08,1.89-.24,3.38s-.25,2.43-.25,2.82,0,.59.15.59q.45,0,1.23-1.11a16.13,16.13,0,0,0,1.55-2.78c.52-1.13.83-1.7.94-1.7s.17.07.17.21a6.36,6.36,0,0,1-.75,2.32q-2.07,4.4-3.48,4.39a2.14,2.14,0,0,1-1.4-.42c-.13-.12-.19-.44-.19-1s0-1.35.15-2.51.14-2,.14-2.6-.1-.86-.29-.86-.72.39-1.47,1.15A4.5,4.5,0,0,0,65.81,62a29.74,29.74,0,0,0-.15,3.84c0,.48-.13.73-.39.73a3.83,3.83,0,0,1-1.14-.17c-.36-.12-.54-.27-.54-.47s.06-1.06.16-2.57.16-2.58.16-3.2-.1-.93-.3-.93-.68.6-1.45,1.79a8.52,8.52,0,0,0-1.27,2.49A10.34,10.34,0,0,0,60.78,65Z"/><path class="cls-1" d="M76.25,66.58a2.79,2.79,0,0,1-2.32-1.11A4,4,0,0,1,73.07,63a6.67,6.67,0,0,1,1.2-4.31,3.85,3.85,0,0,1,3.11-1.46,2.19,2.19,0,0,1,1.46.48A1.66,1.66,0,0,1,79.41,59a3.25,3.25,0,0,1-1.32,2.63,5.19,5.19,0,0,1-3.22,1.1,3.38,3.38,0,0,0,.69,1.77,1.73,1.73,0,0,0,1.37.74,2.7,2.7,0,0,0,1.41-.37,4,4,0,0,0,1.15-1,15.19,15.19,0,0,0,1.88-3.26,7.47,7.47,0,0,1,.33-.68c.07-.14.16-.21.26-.21s.14.07.14.21a8.8,8.8,0,0,1-1.59,3.91Q78.79,66.59,76.25,66.58Zm-1.38-4.49a4.14,4.14,0,0,0,2.26-1,2.62,2.62,0,0,0,.72-1.91c0-.78-.26-1.17-.76-1.17s-1.12.42-1.54,1.26A6.84,6.84,0,0,0,74.87,62.09Z"/><path class="cls-1" d="M83.3,59.63l1.44-.15a.44.44,0,0,1,.36.23.85.85,0,0,1,.16.5c0,.17-.06.76-.17,1.77a23.72,23.72,0,0,0-.17,2.39c0,.58,0,.88.16.88.29,0,.7-.39,1.22-1.11a16.11,16.11,0,0,0,1.56-2.78c.51-1.13.82-1.7.94-1.7s.17.07.17.21a6.43,6.43,0,0,1-.76,2.32c-1.38,2.93-2.53,4.39-3.47,4.39a2.4,2.4,0,0,1-1.54-.42A6.42,6.42,0,0,1,83,63.89a12.48,12.48,0,0,1,.45-3.58,2.3,2.3,0,0,1-2.12-1A2.06,2.06,0,0,1,81,58.22a2.25,2.25,0,0,1,.26-1.09.83.83,0,0,1,.75-.47,1.13,1.13,0,0,1,.88.51,1.79,1.79,0,0,1,.41,1.13A2.44,2.44,0,0,1,83,59.56.59.59,0,0,0,83.3,59.63Z"/><path class="cls-1" d="M88,64.18l.16-2.93c0-1.86.08-2.88.26-3a10.75,10.75,0,0,1,.92-.77,2.06,2.06,0,0,1,1-.51c.2,0,.33,0,.38.1a.78.78,0,0,1,.08.42,5.68,5.68,0,0,1-.5,2.27,25.62,25.62,0,0,0-.39,3.94c0,1,.12,1.54.36,1.54.42,0,.9-.37,1.45-1.11a14.89,14.89,0,0,0,1.69-3.27c0-.38,0-.79.05-1.21s0-.74,0-.94,0-.35,0-.44.25-.32.72-.71a2.07,2.07,0,0,1,1.08-.59c.25,0,.38.33.38,1a7.3,7.3,0,0,1-.14,1,4.44,4.44,0,0,1-.33,1.1c-.14,1.23-.24,2.31-.29,3.23l2.73-3.42a.45.45,0,0,1,.3-.18.23.23,0,0,1,.26.26.66.66,0,0,1-.1.34c-.56.82-1.66,2.25-3.29,4.31q-.16,3.11-.21,4.23a10.6,10.6,0,0,1-.93,4.65,3,3,0,0,1-2.83,1.35,2.86,2.86,0,0,1-1.66-.54,2.09,2.09,0,0,1-.77-1.85,4.61,4.61,0,0,1,1-2.7,53.83,53.83,0,0,1,3.67-4.26l.15-2.84a12.51,12.51,0,0,1-1.75,3,2.49,2.49,0,0,1-1.9,1c-.7,0-1.14-.18-1.33-.52A4.17,4.17,0,0,1,88,64.18Zm5,2.5c-2,2.14-3,3.86-3,5.14a3.17,3.17,0,0,0,.31,1.47,1,1,0,0,0,.87.57A1.2,1.2,0,0,0,92.41,73a15.42,15.42,0,0,0,.5-3.71Z"/><path class="cls-1" d="M28.07,58.35a22.09,22.09,0,0,0,1.22-2.15c1.31-2.33,2.1-3.5,2.37-3.5s.4.17.4.49c0,2-1.05,4.55-3.13,7.62q-5.66,8.3-15,8.29A9.8,9.8,0,0,1,9,67.87a10,10,0,0,1-3.5-3.13,14.17,14.17,0,0,1-2.64-8.11q0-10.68,5.55-17.22t13.18-6.54a6.76,6.76,0,0,1,4.73,1.68,5.54,5.54,0,0,1,1.84,4.27,9.33,9.33,0,0,1-1.29,4.79C26,45.09,25,45.82,23.8,45.82S22,45.5,22,44.84a4.18,4.18,0,0,1,1.19-2.52,4.37,4.37,0,0,0,1.2-2.82c0-2.91-1.54-4.36-4.64-4.36s-5.88,2.07-8.38,6.2A24.38,24.38,0,0,0,7.62,54.12a13.37,13.37,0,0,0,2.57,8.07,8.45,8.45,0,0,0,7.25,3.53Q23,65.72,28.07,58.35Z"/><path class="cls-2" d="M60.57,28.56l0,.76-1,0,.08,3.08-.91,0-.08-3.07-.95,0,0-.76Z"/><path class="cls-2" d="M61.8,28.53l0,1.38a.78.78,0,0,1,.75-.46.9.9,0,0,1,.5.11.72.72,0,0,1,.29.31,1.64,1.64,0,0,1,.1.58l.05,1.87-.84,0,0-1.6q0-.28,0-.39a.42.42,0,0,0-.11-.18.34.34,0,0,0-.2-.06.45.45,0,0,0-.31.13.64.64,0,0,0-.14.52l0,1.6-.81,0L61,28.55Z"/><path class="cls-2" d="M66.8,31,65,31v.13a.58.58,0,0,0,.17.45.56.56,0,0,0,.39.15.48.48,0,0,0,.49-.46l.76,0a1.26,1.26,0,0,1-1.26,1,1.41,1.41,0,0,1-.73-.15,1.35,1.35,0,0,1-.5-.48,1.61,1.61,0,0,1-.21-.78,1.54,1.54,0,0,1,.36-1.1,1.27,1.27,0,0,1,1-.45,1.31,1.31,0,0,1,.95.37A1.63,1.63,0,0,1,66.8,31ZM65,30.52l1,0c0-.39-.2-.58-.5-.57S65,30.13,65,30.52Z"/><path class="cls-2" d="M72,29.69l-.94.09c0-.55-.24-.81-.65-.8s-.7.44-.67,1.27a1.73,1.73,0,0,0,.21,1,.67.67,0,0,0,.55.25q.55,0,.66-.75l.87,0a1.5,1.5,0,0,1-.49,1.06,1.53,1.53,0,0,1-1,.39,1.62,1.62,0,0,1-1.25-.49,2.47,2.47,0,0,1-.09-2.88,1.57,1.57,0,0,1,1.25-.58A1.44,1.44,0,0,1,72,29.69Z"/><path class="cls-2" d="M75.1,32l-.81,0a1.72,1.72,0,0,1-.05-.44,1.15,1.15,0,0,1-.42.41,1.21,1.21,0,0,1-.48.12,1,1,0,0,1-.65-.2.74.74,0,0,1-.26-.58.92.92,0,0,1,.13-.49.89.89,0,0,1,.45-.37,4.7,4.7,0,0,1,1.15-.22v-.16a.36.36,0,0,0-.42-.4.42.42,0,0,0-.48.42l-.78-.05a.91.91,0,0,1,.44-.7,1.86,1.86,0,0,1,.86-.22,1.94,1.94,0,0,1,.55.05.83.83,0,0,1,.4.19.76.76,0,0,1,.21.28,2.48,2.48,0,0,1,.06.53l0,1.28A1.86,1.86,0,0,0,75.1,32Zm-.93-1.33c-.58.07-.87.25-.86.55a.37.37,0,0,0,.1.25.34.34,0,0,0,.27.11.46.46,0,0,0,.36-.2.65.65,0,0,0,.14-.46Z"/><path class="cls-2" d="M76.62,32l-.81,0-.08-2.83.77,0,0,.52c.1-.39.3-.59.59-.6h.15l0,.83a.74.74,0,0,0-.4.09.52.52,0,0,0-.22.29,1.23,1.23,0,0,0-.08.55Z"/><path class="cls-2" d="M77.87,32.91l-.1-3.8.77,0v.42a.76.76,0,0,1,.73-.5,1,1,0,0,1,.77.35,1.72,1.72,0,0,1,.32,1.07,1.85,1.85,0,0,1-.27,1.14.93.93,0,0,1-.76.4.71.71,0,0,1-.69-.35l0,1.27Zm.75-2.22a1.52,1.52,0,0,0,0,.41.46.46,0,0,0,.16.21.47.47,0,0,0,.26.08.38.38,0,0,0,.3-.18,1.43,1.43,0,0,0,.11-.78c0-.56-.17-.84-.46-.83a.39.39,0,0,0-.3.16.71.71,0,0,0-.13.51Z"/><path class="cls-2" d="M58,39l1.35,0a2.78,2.78,0,0,1-.64,1.77,2.06,2.06,0,0,1-1.6.73,2.16,2.16,0,0,1-1.9-.87,4.23,4.23,0,0,1-.7-2.49,4.34,4.34,0,0,1,.57-2.54,2.15,2.15,0,0,1,1.87-1c1.39,0,2.16.8,2.33,2.51L58,37.33c-.06-1-.38-1.48-1-1.46a.81.81,0,0,0-.72.5,4.15,4.15,0,0,0-.22,1.85,4.05,4.05,0,0,0,.29,1.69.8.8,0,0,0,.76.44C57.63,40.33,57.93,39.88,58,39Z"/><path class="cls-2" d="M60.11,36.43l1.38,0,.08,3.16a1.54,1.54,0,0,0,.1.63.39.39,0,0,0,.39.15.54.54,0,0,0,.4-.14.6.6,0,0,0,.16-.37,7,7,0,0,0,0-.95l-.06-2.51,1.37,0,.13,4.92-1.29,0,0-.68a1.53,1.53,0,0,1-.56.66,1.75,1.75,0,0,1-.68.15,1.3,1.3,0,0,1-.82-.2.94.94,0,0,1-.38-.54,4.7,4.7,0,0,1-.11-1Z"/><path class="cls-2" d="M68.38,37.4l-1,.32c-.14-.44-.38-.66-.73-.65a.38.38,0,0,0-.42.44.44.44,0,0,0,.17.37,2.74,2.74,0,0,0,.67.28,7.36,7.36,0,0,1,.84.33,1.36,1.36,0,0,1,.65,1.14,1.53,1.53,0,0,1-.46,1.16,2,2,0,0,1-1.36.5c-1.11,0-1.74-.45-1.88-1.42L66,39.66c.11.49.37.73.8.72s.54-.17.53-.47a.43.43,0,0,0-.17-.37,2.22,2.22,0,0,0-.63-.26,2.43,2.43,0,0,1-1.18-.62,1.37,1.37,0,0,1-.34-.89,1.42,1.42,0,0,1,.47-1.15,1.85,1.85,0,0,1,1.24-.46A1.59,1.59,0,0,1,68.38,37.4Z"/><path class="cls-2" d="M69.54,34.68l1.34-.08,0,1.55.9,0,0,1.08-.91,0L71,39a5.46,5.46,0,0,0,0,.65.38.38,0,0,0,.15.24.63.63,0,0,0,.42.09L72,40l0,1a4.58,4.58,0,0,1-.84.12,1.67,1.67,0,0,1-1-.21,1.11,1.11,0,0,1-.44-.59,4.78,4.78,0,0,1-.12-1.14l0-2h-.55l0-1.08h.54Z"/><path class="cls-2" d="M76.47,38.47q.07,2.56-1.92,2.61c-1.34,0-2-.8-2.07-2.51S73.08,36,74.41,36,76.43,36.76,76.47,38.47Zm-1.41,0a4.3,4.3,0,0,0-.16-1.27.46.46,0,0,0-.46-.32.45.45,0,0,0-.44.32,3.77,3.77,0,0,0-.1,1.3,4.11,4.11,0,0,0,.15,1.25.46.46,0,0,0,.47.34.48.48,0,0,0,.45-.36A4.84,4.84,0,0,0,75.06,38.51Z"/><path class="cls-2" d="M77.37,36l1.3,0,0,.67a1.22,1.22,0,0,1,1.18-.8,1,1,0,0,1,1.08.74,1.22,1.22,0,0,1,1.17-.8,1.59,1.59,0,0,1,.78.16.94.94,0,0,1,.41.47,4.05,4.05,0,0,1,.14,1.14l.08,3.22-1.37,0-.08-3.07A1.84,1.84,0,0,0,82,37a.33.33,0,0,0-.35-.16.4.4,0,0,0-.41.23,2.51,2.51,0,0,0-.08.87l.08,2.87-1.38,0-.08-3.11a2,2,0,0,0-.09-.68c0-.11-.17-.16-.35-.15a.42.42,0,0,0-.43.24,2.22,2.22,0,0,0-.09.86l.08,2.87-1.38,0Z"/></g></svg>